<?xml version="1.0" encoding="UTF-8" standalone="no"?>
<svg
   xmlns:dc="http://purl.org/dc/elements/1.1/"
   xmlns:cc="http://creativecommons.org/ns#"
   xmlns:rdf="http://www.w3.org/1999/02/22-rdf-syntax-ns#"
   xmlns:svg="http://www.w3.org/2000/svg"
   xmlns="http://www.w3.org/2000/svg"
   id="svg93"
   viewBox="0 0 135.46666 135.46667"
   version="1.1"
   height="512"
   width="512">
  <defs
     id="defs48" />
  <metadata
     id="metadata53">
    <rdf:RDF>
      <cc:Work
         rdf:about="">
        <dc:format>image/svg+xml</dc:format>
        <dc:type
           rdf:resource="http://purl.org/dc/dcmitype/StillImage" />
        <dc:title></dc:title>
      </cc:Work>
    </rdf:RDF>
  </metadata>
  <path
     d="M 31.771703,103.56422 C 42.540621,96.777166 55.00412,93.162053 67.733332,93.133332 c 12.741016,0.01087 25.220621,3.615132 36.005558,10.398848 M 67.733332,16.93333 v 101.6 M 16.933333,67.733332 H 118.53333 M 31.771703,31.902445 C 42.540621,38.689499 55.00412,42.304612 67.733332,42.333333 80.474348,42.322458 92.953953,38.718201 103.73889,31.934486 M 93.133326,67.73333 a 25.399996,50.799999 0 0 1 -25.399996,50.8 25.399996,50.799999 0 0 1 -25.399996,-50.8 A 25.399996,50.799999 0 0 1 67.73333,16.933331 25.399996,50.799999 0 0 1 93.133326,67.73333 Z m 25.400004,0 a 50.799999,50.799999 0 0 1 -50.8,50.8 50.799999,50.799999 0 0 1 -50.799999,-50.8 50.799999,50.799999 0 0 1 50.799999,-50.799999 50.799999,50.799999 0 0 1 50.8,50.799999 z"
     style="opacity:1;fill:none;fill-opacity:1;stroke:#000000;stroke-width:8.46666527;stroke-linecap:round;stroke-linejoin:round;stroke-miterlimit:4;stroke-dasharray:none;stroke-dashoffset:10;stroke-opacity:1;paint-order:markers stroke fill"
     id="path17782" />
</svg>
